<svg xmlns="http://www.w3.org/2000/svg" viewBox="0 0 679.74 283.46"><defs><style>.cls-1,.cls-25{fill:#1d1d1b;}.cls-2{fill:#2894cf;}.cls-3{fill:#d71719;}.cls-4{fill:#279438;}.cls-5{fill:#e95d9d;}.cls-11,.cls-13,.cls-14,.cls-15,.cls-16,.cls-21,.cls-23,.cls-5,.cls-9{stroke:#fcbd2f;}.cls-11,.cls-13,.cls-14,.cls-15,.cls-16,.cls-21,.cls-23,.cls-24,.cls-25,.cls-5,.cls-9{stroke-miterlimit:10;}.cls-6{fill:#f18818;}.cls-7{fill:#e31419;}.cls-8{fill:#30b2a3;}.cls-9{fill:#fbe3ee;}.cls-10{fill:#63247f;}.cls-11{fill:#fdf1f6;}.cls-12{fill:#35a6de;}.cls-13{fill:#fffdfd;}.cls-14{fill:#fefafc;}.cls-15{fill:#f9d5e5;}.cls-16,.cls-24{fill:#ee85b4;}.cls-17{fill:#f6ea5e;}.cls-18{fill:#4c2f19;}.cls-19{fill:#e8e022;}.cls-20{fill:#1c529f;}.cls-21{fill:#f5b8d3;}.cls-22{fill:#553317;}.cls-23{fill:#f096be;}.cls-24{stroke:#4f2814;}.cls-25{stroke:#1d1d1b;}</style></defs><g id="Capa_2" data-name="Capa 2"><g id="Capa_1-2" data-name="Capa 1"><path d="M113.38,27.48c6.51,13.48,12.15,24.64,17.2,36.05.9,2,0,5.41-1.11,7.68Q85,163.85,40.34,256.4c-2.26,4.73-4.93,6.6-10.16,6.38-9.43-.39-18.89-.11-30.18-.11C37.84,184.19,75.09,106.91,113.38,27.48Z"/><path d="M99.9,209.11c5.13-10.61,9.21-19.68,14-28.39,1-1.78,4.46-3,6.81-3.07,19.74-.24,39.49-.31,59.24,0,2.68.05,6.66,2,7.76,4.27,12.74,25.64,25,51.5,37.41,77.33.32.65,0,1.58,0,3.34-10.86,0-21.62.31-32.34-.27-2.12-.12-4.76-3.31-6-5.69-6.87-13.65-13.57-27.4-19.92-41.31-2.16-4.73-4.92-6.47-10.15-6.38C138.44,209.31,120.11,209.11,99.9,209.11Z"/><path d="M166.65,0H459.22V41.49c-84.71,0-168.65,1.79-252.38-1.6-15.51-.63-30.16-22.14-45.21-34Z"/><path d="M288.86,64.89c29.88,19.91,45.74,40.56,43.23,75.42-3.15,43.74-.76,87.89-.76,134.32H288.86Z"/><path class="cls-1" d="M579.62,264.8l5,0a6.62,6.62,0,0,1,4.37,1.3,4.3,4.3,0,0,1,1.5,3.49,4.42,4.42,0,0,1-1.54,3.54,6.86,6.86,0,0,1-4.5,1.29l-3.45,0,0,8.44h-1.4ZM581,266l0,7.29h3.36a5.36,5.36,0,0,0,3.44-.94,3.66,3.66,0,0,0,0-5.35,4.93,4.93,0,0,0-3.29-1Z"/><path class="cls-1" d="M601,282.94v-2h0a5.66,5.66,0,0,1-1.71,1.69,4.45,4.45,0,0,1-2.22.5,4.34,4.34,0,0,1-3.16-1.26,4.75,4.75,0,0,1-1.24-3.52l0-7.36h1.27l0,7.34a3.62,3.62,0,0,0,.89,2.6,3.16,3.16,0,0,0,2.35,1,3.9,3.9,0,0,0,2.12-.56,6.4,6.4,0,0,0,1.76-2l0-8.35h1.26l0,11.88Z"/><path class="cls-1" d="M605.59,282.3l.07-17.39h1.27l0,7.87a5.87,5.87,0,0,1,4.3-1.92A4.92,4.92,0,0,1,615,272.5a6,6,0,0,1,1.47,4.18,6.4,6.4,0,0,1-1.84,4.76,6.62,6.62,0,0,1-4.83,1.77A11.51,11.51,0,0,1,605.59,282.3Zm1.3-8.1,0,7.2a8.46,8.46,0,0,0,2.92.57,5.25,5.25,0,0,0,3.81-1.47,5,5,0,0,0,1.52-3.75,5.09,5.09,0,0,0-1.15-3.46,3.68,3.68,0,0,0-2.93-1.37A5.6,5.6,0,0,0,606.89,274.2Z"/><path class="cls-1" d="M620.24,265,620.16,283h-1.28L619,265Z"/><path class="cls-1" d="M625.21,265v2.17h-1.28V265Zm0,6.17L625.14,283h-1.28l0-11.89Z"/><path class="cls-1" d="M637.06,271.54V273a7.75,7.75,0,0,0-3.08-.76,4.12,4.12,0,0,0-3.24,1.37,5.16,5.16,0,0,0-1.27,3.59,5,5,0,0,0,1.24,3.57,4.32,4.32,0,0,0,3.33,1.34,8.4,8.4,0,0,0,3.21-.67v1.32a10.12,10.12,0,0,1-3.31.59,5.62,5.62,0,0,1-4.21-1.67,5.94,5.94,0,0,1-1.59-4.35,6.51,6.51,0,0,1,1.64-4.57,5.36,5.36,0,0,1,4.15-1.76A10.21,10.21,0,0,1,637.06,271.54Z"/><path class="cls-1" d="M641.22,265.05v2.17h-1.28V265Zm0,6.16,0,11.89h-1.28l0-11.88Z"/><path class="cls-1" d="M655,265.1l-.07,18H653.6v-.93a6,6,0,0,1-3.52,1.15,5.75,5.75,0,0,1-4.27-1.81,6.49,6.49,0,0,1,0-8.81,5.81,5.81,0,0,1,4.31-1.74,7.9,7.9,0,0,1,3.51,1l0-6.88Zm-1.34,15.95,0-7.67a6.27,6.27,0,0,0-3.46-1.13,4.57,4.57,0,0,0-3.39,1.35,4.77,4.77,0,0,0-1.34,3.48,4.86,4.86,0,0,0,1.41,3.6,4.8,4.8,0,0,0,3.54,1.45A5.53,5.53,0,0,0,653.61,281.05Z"/><path class="cls-1" d="M667.63,281.14v1.06a5.05,5.05,0,0,1-2.41,1.23.64.64,0,0,1-.61-.3,3.32,3.32,0,0,1-.24-1.18,6,6,0,0,1-3.73,1.46,3.22,3.22,0,0,1-2.27-.89,2.87,2.87,0,0,1-.92-2.14,3.44,3.44,0,0,1,1.81-3,10.77,10.77,0,0,1,5.14-1.27v-1.51c0-1.62-.87-2.43-2.63-2.44a6,6,0,0,0-3.63,1.5v-1.31a7.31,7.31,0,0,1,3.85-1.25,4.18,4.18,0,0,1,2.65.81,2.69,2.69,0,0,1,1,2.31l0,7.4c0,.41.09.61.28.61A4.59,4.59,0,0,0,667.63,281.14Zm-3.25-.3v-3.71a7.25,7.25,0,0,0-4,.84,2.78,2.78,0,0,0-1.62,2.42,1.79,1.79,0,0,0,.66,1.4,2.51,2.51,0,0,0,1.68.57A5,5,0,0,0,664.38,280.84Z"/><path class="cls-1" d="M679.74,265.2l-.07,18.05h-1.28v-.93a5.89,5.89,0,0,1-3.52,1.14,5.67,5.67,0,0,1-4.26-1.8,6.49,6.49,0,0,1,0-8.81,5.79,5.79,0,0,1,4.3-1.74,7.9,7.9,0,0,1,3.51,1l0-6.89Zm-1.35,15.95,0-7.67a6.32,6.32,0,0,0-3.46-1.13,4.57,4.57,0,0,0-3.39,1.35,4.78,4.78,0,0,0-1.35,3.48,4.9,4.9,0,0,0,1.41,3.6,4.8,4.8,0,0,0,3.55,1.45A5.52,5.52,0,0,0,678.39,281.15Z"/><path class="cls-2" d="M52,243.48a.54.54,0,0,1,0,.32A17.41,17.41,0,0,1,55.79,251a7.94,7.94,0,0,0-1.29.74,12.32,12.32,0,0,0-2.74-5.84l-6.4,13-1.24-.61,6.74-13.73v-.24Zm-.17,8.73a.49.49,0,0,1,.1.57c4,2.64,7.42,6.13,7.74,10.94a10,10,0,0,0-1.36.67c-.22-4.72-3.37-7.92-7.55-10.51Z"/><path class="cls-3" d="M57.53,247.39l7.66-15.6,1.33.65-7.31,14.89a1,1,0,0,1,.06.77Z"/><path class="cls-4" d="M73,220a72.62,72.62,0,0,0-6.06,4.91l9,4.44-.67,1.36L59.59,223l1-1.78c.19.12.24.33.14.66L66,224.47l-.25-.45a70.82,70.82,0,0,1,6.37-5.33Z"/><path class="cls-5" d="M410,157.51c1.22-11.65,2.64-23.24,7.22-34.19,10.2-24.4,27.28-42,51.83-52a91.72,91.72,0,0,1,60.25-3.45c1.69.46,3.42.79,5.12,1.18a42.51,42.51,0,0,0,7.71,3.35c.45.29.88.67,1.44.23h0a.72.72,0,0,0,.52.79c10,4.5,18.44,11.4,26.8,18.36a34.67,34.67,0,0,0,5.06,6.27c.26.24.49.56.92.36l0,0c2,3.83,4.87,7.08,7.26,10.65l3.68,6.89.29.49.38.93.76,1.53.36.92c.21.57.41,1.15.65,1.71a92.09,92.09,0,0,1,7.08,42.59c-2.07-.53-1.23-2.51-1.88-3.75a88.21,88.21,0,0,0-10.52-45.14c-5.43-10.14-12-19.45-21.6-26.16-1.29-2.33-3.39-3.79-5.57-5.17l-.56.14,0,0c0-.42-.22-.63-.66-.41h0c-.75-1.73-2.54-2.13-3.93-3l-2.4-1.47a66.86,66.86,0,0,0-13.94-6.73c-3.09-1.14-6.13-2.61-9.55-2.55A14.94,14.94,0,0,0,519.44,68a1.44,1.44,0,0,0-1.44-.23h0a11.13,11.13,0,0,0-1.47-.42c-17-2.25-33.5-.19-49.17,6.92-28.44,12.9-45.85,34.86-52.88,65.18a3.2,3.2,0,0,0,0,2.32,14.52,14.52,0,0,0-1.05,9.07c-.19,2-1.3,3.87-.39,5.91h.06c-.62.29-.34.78-.27,1.23a12.67,12.67,0,0,0,.09,4.3,85.46,85.46,0,0,0,10.9,39.2c.17.68.37,1.33,1.18,1.52a2.31,2.31,0,0,0-.38-1.72l-1-4.62c-.3-2.43-.61-4.85-.91-7.28a81.91,81.91,0,0,1,2-23.2c1.26-5.29,3.58-10.23,5-15.47,1.75-1.06,2.34-2.92,3.19-4.61l.18-.55a.34.34,0,0,0,.19-.34l5.24-7.57c4.32-5.12,8.85-10,14.41-13.85-.16,1.67-1.35,2.85-2,4.27-.36.25-.85.38-.88.94l0,0a61.94,61.94,0,0,0-17.79,23.28,22.7,22.7,0,0,0-3.08,7.76,22.1,22.1,0,0,0-2.56,7.22,74.29,74.29,0,0,0,1.89,39.83c1.91,5.92,5.86,10.26,10.38,14.22.3,1.26.59,2.51.88,3.76-1.61-.41-2.15-2.3-4.39-3.15,2.38,3.63,4.26,6.7,6.94,9.21a25.86,25.86,0,0,1,3.1,6.28c-3.19-2.55-5.61-5.8-8.07-9-3.82-5-6-11-9.39-16.12a105.88,105.88,0,0,1-16.11-38.93c-.3-2.88-.59-5.77-.89-8.66C410.67,162.3,410.78,159.85,410,157.51Z"/><path class="cls-6" d="M595.41,160.37c.65,1.24-.19,3.22,1.88,3.75q1.73,5.83,3.44,11.69l.9,3.61q.69,5.09,1.39,10.18c.68,5,0,10,.12,15l0-.05a1.17,1.17,0,0,0-.26,1.17,65.8,65.8,0,0,0-1.46,6.88c-.09.77-.83,2.19.76,2.67-4.05,8.94-6.73,18.48-12.29,26.77-10.26,15.27-23.66,26.49-41,33a83.15,83.15,0,0,1-53.77,2.1,3.38,3.38,0,0,0-.78,0l-8.09-3-14.4-7.19c.13-1.19-2.83-1.8-.65-3.39a27.3,27.3,0,0,0,6.57,3.34c1,2.28,3.42,2.2,5.16,3.25l1.13.21,0,0a.52.52,0,0,0,.67.41h0a51.54,51.54,0,0,0,18.27,6,18.56,18.56,0,0,0,7,1.11,22.73,22.73,0,0,0,2.57.47,81,81,0,0,0,37.57-5.84,81.92,81.92,0,0,0,41.36-37.38c1-1.84,2.58-3.6,2.26-6h0c.39-.07.49-.31.4-.66v0a.49.49,0,0,0,.4-.66l0,0,.53-.71c1.58-1.34,1.58-3.07,1.23-4.89.55-1.53,1.86-2.74,1.85-4.5h0c.16-.21.32-.43.49-.64a7.46,7.46,0,0,0,.41-4.52,11.59,11.59,0,0,0,1.22-3.7,71.13,71.13,0,0,0,.43-20c.37-1.28-.27-2.44-.46-3.65a47.59,47.59,0,0,0-3.5-14.81c-.19-1.34.26-3-1.55-3.61a11.51,11.51,0,0,0-1.64-5c-.36-1.6-.89-3.2-.09-4.82C594.32,158,594.25,159.52,595.41,160.37Z"/><path class="cls-3" d="M602.2,215.26c-1.59-.48-.85-1.9-.76-2.67a65.8,65.8,0,0,1,1.46-6.88,1,1,0,0,0,.26-1.17l0,.05a45.82,45.82,0,0,0,7.25-17.09,88.34,88.34,0,0,0-3.31-47,89.44,89.44,0,0,0-18.78-31.74c-3.48-3.81-7-7.61-11.47-10.37l0,0a.8.8,0,0,0-.92-.36,34.67,34.67,0,0,1-5.06-6.27c1.93.33,3.15,1.84,4.62,2.9,17.94,13,29.72,30.28,35.54,51.65,1.57,5.79,2.22,11.72,3.06,17.62-.8,4.14.43,8.29-.05,12.43,0,.33.43.71.67,1.07-.31,5.2-2.11,10.08-3.24,15.1a89.68,89.68,0,0,1-7.24,19.67A7.64,7.64,0,0,1,602.2,215.26Z"/><path class="cls-3" d="M614.72,177.47c-.24-.36-.71-.74-.67-1.07.48-4.14-.75-8.29.05-12.43.85-5.59.13-11.16-.76-16.63a89.56,89.56,0,0,0-9.85-29.27C593.43,99.91,579.07,86.34,560,78c-5.29-2.32-10.62-4.62-16.45-5.31h0c-.41-.5-.93-.34-1.44-.23a42.51,42.51,0,0,1-7.71-3.35c4.29-.37,8.33,1,12.36,2a89.49,89.49,0,0,1,28.62,13.06,93.46,93.46,0,0,1,39.61,61,90.65,90.65,0,0,1,.24,31.13A4.44,4.44,0,0,1,614.72,177.47Z"/><path class="cls-7" d="M486.31,274.1l8.09,3c-2.68,1.07-5.3,0-7.84-.46a94.15,94.15,0,0,1-30.29-10.86A97.68,97.68,0,0,1,433,247.16a85.86,85.86,0,0,1-15.75-23.8,112.64,112.64,0,0,1-7.85-25.57c.67-.18.73-.66.62-1.23-1.3-6.44-1.13-12.94-.66-19.42.3-4.15-.23-8.44,1.5-12.43.3,2.89.59,5.78.89,8.66a56,56,0,0,0-.88,10.33c.06,7.82.55,15.59,3.2,23.06-.5.88,0,1.72.19,2.53A73.79,73.79,0,0,0,427,235.57c-.33.31-.2.44.18.47l0,0a7.3,7.3,0,0,0,1.73,3.2,93,93,0,0,0,48.26,33.26C480.05,273.36,483.05,274.64,486.31,274.1Z"/><path class="cls-2" d="M410.85,164.71c-1.73,4-1.2,8.28-1.5,12.43-.47,6.48-.64,13,.66,19.42.11.57.05,1.05-.62,1.23a95.09,95.09,0,0,1-.28-37.58,5.28,5.28,0,0,1,.91-2.7C410.78,159.85,410.67,162.3,410.85,164.71Z"/><path class="cls-4" d="M593.46,157c-.8,1.62-.27,3.22.09,4.82-.61,2.26.68,4.21,1,6.33l0,0c-.53.45-.46.79.18,1-.27,2-.54,3.91-.84,6.13-1.29-1.35-.36-2.91-1.3-4.38-.57,1.75.23,3.32-.54,4.66-.25.36-.64.7-.7,1.09-1.77,10.64-7.1,19.73-12.44,28.83-.28-.33-.43-.22-.51.15l0,0-.41.66,0,0-.41.67,0,0-.4.65h0l-.39.64h0c-1.11.28-1.58,1.3-2.28,2-2,2.1-4,4.29-5.94,6.44-.46.1-.88.25-1,.79v0l-.4.66h0c-2.23.61-3.53,2.42-5.09,3.91a9.7,9.7,0,0,0-4.7,3.42,3.94,3.94,0,0,0-1.28.25c-5,3.18-10.83,4.75-16,7.79-3.18,1.89-6.68,3.23-10,4.82-2.53.69-5.13.57-7.7.72-1,.06-2.13,1.31-3-.28,4.94-.74,9.56-2.5,14.27-4A39,39,0,0,0,523.19,236a2.43,2.43,0,0,0-2-.55,54.17,54.17,0,0,1-10.42-.19,71,71,0,0,1-24.88-7c-2.17-1-4-2.92-6.58-3h0l-.73-.38a6.91,6.91,0,0,1-2.3-1.67c-2.95-2.38-5.95-4.72-8.93-7.08h0l-.67-.41,0,0c-.11-.46-.3-.84-.83-.93a106.22,106.22,0,0,1-10.12-12.55,73.66,73.66,0,0,1-11.69-30.83c-.24-2,.45-4.25-1.21-6,.77-4.84.49-9.73.85-14.59.64-3.94,1.77-7.76,2.7-11.63.85-3.55,3-6.62,3.44-10.3l0,0c.51-.11.89-.34.88-.94.69-1.42,1.88-2.6,2-4.27l3.4-5a73.6,73.6,0,0,1,12.92-14.6s-.13-.26-.2-.41c2.5-2.07,5.64-3.25,7.9-5.65.82-1.14,2.77-.63,3.41-2.44a114.64,114.64,0,0,0-13.22,4.49c-2.85,1.07-5.35,3-8.49,3.33,1.09-1.83,2.85-3,4.45-4.24.48.44.94.25,1.45,0a57,57,0,0,1,14.09-4.78c8.25-1.4,15.79-5.22,24-6.83.37-.08.67-.49,1-.74.43,0,.87,0,1.3,0,3-.26,6,.1,8.8-1.31,1.25-.53,2.35.35,3.6.33a72.71,72.71,0,0,1,35.23,8.21A74.25,74.25,0,0,1,586.09,129a76.21,76.21,0,0,1,5.38,15.3C592.43,148.42,592.82,152.71,593.46,157Zm-55.69-56.32-.68-.41,0,0-1.26-.43c-1.88-.65-3.8-1.21-5.64-2A74.88,74.88,0,0,0,513,93.42a60.14,60.14,0,0,0-18.8.31c-4.49.74-9.3,1.14-12.93,4.57a50.7,50.7,0,0,0-12.1,8.63,64.63,64.63,0,0,0-11.48,13.42c-.86,1.3-2.23,2.32-2.17,4.1a24,24,0,0,0-2.59,3.93c-1.22,2.92-3.4,5.54-3.08,9l-.3.51-.49.77c-1,2.57-2.31,5.05-1.93,8v0c-.49.3-.38.75-.28,1.19l0-.05-.41.76c.19,2.07-1.33,4-.69,6.07v0l-.38.79a7.9,7.9,0,0,0,.29,3.58l0,0-.41.73a61.32,61.32,0,0,0,1.59,15.86c1.11,4.33,1.74,8.82,3.69,12.87,1.71,3.57,2.77,7.55,5.83,10.37l.58,1c-.46.48-.33.8.26,1a35.69,35.69,0,0,0,7.16,9.18c4.26,5.58,9.81,9.72,15.68,13.36a67.08,67.08,0,0,0,17.23,7.65c13,3.62,25.95,4.48,39,.54a20,20,0,0,0,7.64-2.3c4.93-2.3,8.74-6.1,12.54-9.87s6.89-8.59,10.15-13a3,3,0,0,1-.15,2c-.65,2.56-2.61,4.34-3.82,6.55L553.8,224c3-.6,5-2.82,7.49-4.14l.31-.6v0c2-.54,2.93-2.18,4-3.72.72.66,1,0,1.46-.42,5.29-4.77,10.09-9.9,13-16.55.27.31.46.33.54-.14v0a1,1,0,0,0,.28-1.17h0c1.23-.25,1.61-1.37,2-2.28.92-2.08,1.65-4.24,2.46-6.37.87-.43,1.48-.94.56-1.91l.18-1c2-1,1.85-3.05,2.34-4.7,2.35-7.85,3.56-15.79,1.46-24-.3-1.16-1.86-2.1-.82-3.56.86.36.75,1.71,1.81,1.86.56-1.17.05-2.25-.09-3.35.46-.55.25-1.15.13-1.75-1.87-8.85-4.36-17.45-8.94-25.37a74.54,74.54,0,0,0-23.48-25c-7.9-5.28-16.65-8.5-25.82-10.69-.92-.22-2-.82-2.92.15-1-.29-2-.65-3-.84-3.37-.6-6.75-1.23-10.18-.37a63.78,63.78,0,0,0-19.4,2.61c1.62.91,2.46.33,3.31.33q37.85-.15,65.83,25.32c3.24,3,5.74,6.57,9.12,9.35l-.08.07c.13.54.39.91,1,.86,2.69,3.27,4.51,7.09,6.65,10.71,1.69,2.86,3.47,5.69,4.27,9l-8.12-9.34c-4.08-10.69-12-18.13-20.89-24.75a9.52,9.52,0,0,0-4-2.86l-.61-.4-.63-.39c-2.82-2.89-6.6-4.21-10-6.07-1.41-.76-2.77-1.89-4.57-1.64l0,0c-.08-.37-.33-.46-.67-.41Z"/><path class="cls-6" d="M465.87,262.17c-1.8-2.52-4.42-4.19-6.55-6.36a101.68,101.68,0,0,1-14-18.39,25.86,25.86,0,0,0-3.1-6.28l-1.79-5.2-.59-.46a.84.84,0,0,1-.17-.4c-.29-1.25-.58-2.5-.88-3.76-2.26-5.38-1.92-11.53-4.88-16.71,2-.61,1.43-2.09,1.2-3.47.2-2.37-.46-4.67-.59-7,.72-1.44.41-2.9.08-4.37a6.85,6.85,0,0,0,.83-3.35,67,67,0,0,1,2.68-13.12,78,78,0,0,0,3.29-13.77,31.18,31.18,0,0,1,2.41-8.57c-.36,4.86-.08,9.75-.85,14.59a21.84,21.84,0,0,0-.74,3.33A63.41,63.41,0,0,0,446.5,196a64.66,64.66,0,0,0,34.8,36.36c2.53,1.13,5.05,2.49,7.95,2.57h0a1.81,1.81,0,0,0,2.32.54h0c.08.35.34.41.65.39a14.06,14.06,0,0,0,9,1.13c7.43,1.87,14.75.72,22-.9a39,39,0,0,1,10.64-1.37c-4.71,1.46-9.33,3.22-14.27,4-2.74.78-5.66.8-8.35,1.85l-4.48-.5c-22-.83-39.82-9.75-53.18-27.24a61.82,61.82,0,0,1-12.35-29c-.41-2.77-.87-5.53-1.31-8.3.07-.21.15-.42.21-.64,0,0-.14-.07-.21-.11,0,.23-.05.47-.08.71-1.91,6.22-3.2,12.51-2.47,19.07a4.88,4.88,0,0,0-.44,2.84l.15,4.92c.3,3.52.5,7.06,2.32,10.23-1.28,1.67-.89,3.29.14,4.9.41,2.74,1.71,5.21,2.43,7.86.13,1.74,1.36,3,2.08,4.42a33.41,33.41,0,0,0,4.17,8.1c.53,2.51,2.45,4,4.07,5.79-.31.28-.37.5.13.61l0,0c.13.3.3.52.67.4h0c1.44,3.67,4.47,6.1,6.94,9,2.6,3,6.14,5.06,8.58,8.25.1.7.28,1.53-.55,1.82s-.79-.72-1.2-1.09l-.93-.34Z"/><path class="cls-7" d="M429.67,150.76c-.46-1.91.58-3.56,1-5.29a88.28,88.28,0,0,1,3.76-13.26c.89-.15,1.27-.86,1.64-1.55q2.16-4,4.28-8c.27-.42.53-.85.8-1.28l0,0a1.07,1.07,0,0,0,.29-1.18l0,0,.41-.64h0l.39-.63h0l.38-.63h0c3.67-3.65,6.33-8.11,9.67-12l14.82-12.8c2.3-1.6,5.22-2.21,7.08-4.49,1.56-.75,3.13-1.5,4.68-2.27a94.54,94.54,0,0,1,41.35-9.9c7.33-.08,14.51,1.07,21.7,2.23l10.39,3a7.55,7.55,0,0,0,4.27,1.58h0l.66.41,0,0c.29.4.46.27.56-.14,2.18,1.38,4.28,2.84,5.57,5.17-3.15-1.3-6.28-2.65-9.45-3.9a89.67,89.67,0,0,0-44.72-5.52,101.21,101.21,0,0,0-20.68,5,3.89,3.89,0,0,0-2.36,1.54,20.59,20.59,0,0,0-3.53.94c-1.38.62-3.31.48-3.87,2.44-6,2-10.7,6-15.63,9.76-1.6,1.28-3.36,2.41-4.45,4.24C451.34,109.53,446,117,441.33,125a3.49,3.49,0,0,0-.16,1.24h0a.52.52,0,0,0-.4.65v0a.54.54,0,0,0-.4.65h0l-.4.65v0l-.64.71a.4.4,0,0,0-.19.36l-.36.87,0,0-.52.7-.27.56c-.11.4-.21.81-.32,1.21-1.81,2.2-2.61,4.88-3.38,7.53-.49,1.69-1.86,3.23-1.12,5.2a.34.34,0,0,1-.19.34c-.25.13-.79.16-.18.55C432,147.84,431.42,149.7,429.67,150.76Z"/><path class="cls-8" d="M487.16,75.1a96.38,96.38,0,0,1,27-6.54,34.88,34.88,0,0,0,3.88-.74h0c.41.54.94.31,1.44.23a14.94,14.94,0,0,1,7.29,1.82c-.73.49-1.53.13-2.3.16-3.73.13-7.48-.12-11.18.61a49.91,49.91,0,0,0-10.42,1.9c-9.52,1.73-18.27,5.5-26.57,10.33A63.88,63.88,0,0,0,462.6,93c-1.73,1.4-3.71,2.53-4.88,4.53a60.14,60.14,0,0,0-8.1,9.35,12.29,12.29,0,0,1-4.55,3.79c-.13-.58.21-1,.51-1.4,1.43-2.07,2.81-4.17,4.21-6.26v0c.27-.16,1.06-.06.36-.71,1.76-1.39,3.49-2.8,4.41-4.94,7.16-6.76,14.64-13.1,23.34-17.85Z"/><path class="cls-9" d="M413.05,156.8c2.16-5.06,4-10.23,6.49-15.17a93.47,93.47,0,0,1,11.24-16.78,77.57,77.57,0,0,1,11.7-11.71,18.75,18.75,0,0,0,2.09-2.34c.27.31.45.28.52-.14l0,0a12.29,12.29,0,0,0,4.55-3.79c1.09.74,1.67-.81,2.64-.58-3.34,3.92-6,8.38-9.67,12-.35-1.47,1.16-2.27,1.32-3.56l.15-.28-.18.26c-2.12.37-2.76,2.33-3.94,3.71-.95-.35-.4.34-.43.63h0a4.18,4.18,0,0,0-2.59,1.64,109.43,109.43,0,0,0-14.21,18.76A27.94,27.94,0,0,0,421,144.1a12.3,12.3,0,0,0-3.28,6.73c-1.22,1.62-1.48,3.63-2.25,5.44-.86,2-.92,4.36-2.52,6.06a12.67,12.67,0,0,1-.09-4.3,1.06,1.06,0,0,0,.27-1.23Z"/><path class="cls-2" d="M449.79,103c-2.82.8-4.78,2.92-6.91,4.69a91.21,91.21,0,0,0-28.4,40.78c-.29.82-.69,1.6-1,2.4a14.52,14.52,0,0,1,1.05-9.07c1.8-2.3,2.64-5.1,4-7.62A122.47,122.47,0,0,1,433,113.85l7.05-6.57c.84-.63,1.69-1.25,2.53-1.89,3.84-2.91,7.59-6,12-8-.92,2.14-2.65,3.55-4.41,4.94l-.36.71Z"/><path class="cls-10" d="M600.73,175.81c.57-.21.71-.6.76-1.21a94.1,94.1,0,0,0-3-35,83.18,83.18,0,0,0-7.63-18.84c-.34-.59-.58-1.07-1.34-.94l-.36-.92c.74-1,.54-1.54-.76-1.53l-.38-.93c.47-.5.15-.54-.29-.49l-3.68-6.89c.3-.19-.49-1.83.7-.7a22.74,22.74,0,0,1,3.38,4.35,106.15,106.15,0,0,1,9.93,19.89,103.26,103.26,0,0,1,4.51,17.57,89.14,89.14,0,0,1,.18,27.67,1.7,1.7,0,0,1-1.16,1.58Z"/><path class="cls-10" d="M469,103.88c-8.66,4.43-15.68,10.82-21.9,18.18-3,3.57-5.16,7.74-7.65,11.67-.77,1.21-1.42,2.45-1,4l-5.24,7.57c-.74-2,.63-3.51,1.12-5.2.77-2.65,1.57-5.33,3.38-7.53.45-.31.41-.75.32-1.21l.27-.56c.17-.23.35-.46.52-.7l0,0,.36-.87a.4.4,0,0,1,.19-.36l.64-.71v0l.4-.65h0l.4-.65v0l.4-.65h0a1.79,1.79,0,0,0,1.22-.92,57.9,57.9,0,0,1,11.12-12.9c6.87-6.23,14.5-11.27,23.39-14.21C474.64,100.63,471.5,101.81,469,103.88Z"/><path class="cls-11" d="M423.61,196.71c-.95.07-1.07-.64-1.31-1.32a90.85,90.85,0,0,1-5.17-34.93c.16-3.21.38-6.42.57-9.63A12.3,12.3,0,0,1,421,144.1a106.1,106.1,0,0,0-2.17,21.63,83.74,83.74,0,0,0,1.45,14.3c.47,2.39.44,4.88,1.21,7.23.26.81.19,1.8,1.23,2.17C423,191.86,423.31,194.28,423.61,196.71Z"/><path class="cls-12" d="M502.83,72.53a49.91,49.91,0,0,1,10.42-1.9c.23.74.78.73,1.45.76A86.34,86.34,0,0,1,547,78.72c1,.45,2.08,1.06,3.26.42l2.4,1.47c-.11.49-.23,1-.34,1.46l-10.39-3c-1.23-1.86-3.38-1.47-5.12-2.08-10.46-3.65-21.26-4.55-32.24-3.77C503.78,73.29,503.13,73.43,502.83,72.53Z"/><path class="cls-8" d="M433.9,204.61a92.71,92.71,0,0,1-6.67-35.09c0-.82.45-1.8-.72-2.25a22.1,22.1,0,0,1,2.56-7.22,5.37,5.37,0,0,1,.24,2.58c-.56,6.19,0,12.35.5,18.51a89.49,89.49,0,0,0,2.94,14.6,13.52,13.52,0,0,0,2.35,5.4C435.33,202.52,435.87,204,433.9,204.61Z"/><path class="cls-10" d="M429.81,181.14c-.47-6.16-1.06-12.32-.5-18.51a5.37,5.37,0,0,0-.24-2.58,22.7,22.7,0,0,1,3.08-7.76q-.4,6.08-.8,12.16c-.68.62-.5,1.49-.51,2.22A72.65,72.65,0,0,0,432,180.88c.54,3,.66,6.23,2.58,8.87.33,1.47.64,2.93-.08,4.37a20.13,20.13,0,0,1-2.64-6.37C431.2,185.54,431.41,183.06,429.81,181.14Z"/><path class="cls-11" d="M439.66,225.08a.84.84,0,0,0,.17.4l.59.46c.6,1.73,1.19,3.46,1.79,5.2-2.68-2.51-4.56-5.58-6.94-9.21C437.51,222.78,438.05,224.67,439.66,225.08Z"/><path class="cls-11" d="M423.83,201.53l.8-.2a2.31,2.31,0,0,1,.38,1.72C424.2,202.86,424,202.21,423.83,201.53Z"/><path class="cls-13" d="M450.84,128.11c0,.6-.37.83-.88.94C450,128.49,450.48,128.36,450.84,128.11Z"/><path class="cls-13" d="M519.44,68c-.5.08-1,.31-1.44-.23A1.44,1.44,0,0,1,519.44,68Z"/><path class="cls-13" d="M542.15,72.43c.51-.11,1-.27,1.44.23C543,73.1,542.6,72.72,542.15,72.43Z"/><path class="cls-14" d="M413.11,156.8a1.06,1.06,0,0,1-.27,1.23C412.77,157.58,412.49,157.09,413.11,156.8Z"/><path class="cls-14" d="M557.19,84.06l-.66-.41C557,83.43,557.15,83.64,557.19,84.06Z"/><path class="cls-14" d="M557.72,83.9c-.1.41-.27.54-.56.14Z"/><path class="cls-13" d="M575.94,98.07a.8.8,0,0,1,.92.36C576.43,98.63,576.2,98.31,575.94,98.07Z"/><path class="cls-15" d="M432.86,146.15c-.61-.39-.07-.42.18-.55Z"/><path class="cls-7" d="M452.26,243.58c-1.62-1.75-3.54-3.28-4.07-5.79,2.65,2,5.2,4.2,7.95,6.08,6.71,4.59,13.84,8.3,21.87,10l0,0,.64.46c2.39.67,4.75,1.58,7.31.93,2.72.58,5.35,1.46,8.19,1.6,10,.48,19.71-1.43,29.1-4.69,4.08-1.42,8.19-3,11.61-5.87.13-.19.71.11.5-.45l-.45.49a7.83,7.83,0,0,0-1.3.19,114.34,114.34,0,0,1-27.13,4.86c-8.84.49-17.48-1-26-3.21-4.55-1.16-9-2.81-13.48-4.23l0,0-.73-.65c-1.71-.73-3.2-2.11-5.28-1.73a96,96,0,0,0-10.92-7.28L444,229.69c-.72-1.46-1.95-2.68-2.08-4.42,2.41,1.21,3.8,3.83,6.48,4.67v0c0,.55.34.78.79.93l-.05,0,.69.44c1.89,1.17,3.3,3.12,5.66,3.54,7.79,5.91,16.81,9.07,26.09,11.65.72.2,1.5.61,2.27.08l0,0c0,.49.33.45.67.41l0,0c.31.45.8.34,1.23.41a19.89,19.89,0,0,0,6.77.86,65.74,65.74,0,0,0,7.56,1,94.52,94.52,0,0,0,33.47-4.8c6.22-2,12.23-4.49,16.51-9.81a16.09,16.09,0,0,1,6.19-4.19c-.52,1.41-2.13,2.1-2.45,3.68,1.08.24,1.67-.56,2.33-1a91.5,91.5,0,0,0,35.6-48.95,15.15,15.15,0,0,0,.38-8.57c.77-1.34,0-2.91.54-4.66.94,1.47,0,3,1.3,4.38.3-2.22.57-4.17.84-6.13l-.18-1,0,0c.67-.23.3-1,.65-1.34,1.81.65,1.36,2.27,1.55,3.61l-2,11.16c-.85,1.42-.77,3-1,4.59a27.34,27.34,0,0,0-3.33,8.33,5.19,5.19,0,0,0-1.31,2.25,96.77,96.77,0,0,1-21.17,29.39c-10.48,9.88-23.47,16-35.25,24a36.52,36.52,0,0,1-4.47,2.23c-1.26.78-2.9.82-3.94,2-8.18,2.37-16.43,4.35-25,4.59-2.16.23-4.34-.47-6.49.16-8.78-1.28-17.43-2.95-25.62-6.6-5-2.22-9.41-5.34-14.16-7.91h0c-.08-.36-.28-.54-.67-.4l0,0C452.34,244,452.3,243.78,452.26,243.58ZM553,234.5l-.17.21c.07,0,.15.13.21.12s.11-.12.16-.19Z"/><path class="cls-12" d="M559.75,255.11c-5,2.35-10.31,3.83-15.44,5.79-.73-.59-1.47-.11-2.21,0-2.32.29-4.38,1.41-6.58,2.08-4-.46-7.91.63-11.89.69A95.46,95.46,0,0,1,494.9,260c-.74-.22-1.57-.26-2.11-.94,2.15-.63,4.33.07,6.49-.16a1.52,1.52,0,0,0,1.13.55c15.74,3.25,31.35,3.28,46.74-2,2.57-.48,5.13-1,7.25-2.7.49.44.77.27.89-.32l0,0c5.76-1.54,10.71-4.62,15.47-8.06a13.55,13.55,0,0,0,4.62-3.18l.48-.7v0a3.61,3.61,0,0,0,1.84-.94,93.16,93.16,0,0,0,12.49-12c2.15-2.42,3.71-5.31,6.15-7.47.35,1.82.35,3.55-1.23,4.89l-.53.71,0,0-.4.66v0l-.4.66h0c-2.61,2.68-5.2,5.39-7.84,8-6.17,6.19-13.37,11-20.78,15.58A26.86,26.86,0,0,0,559.75,255.11Z"/><path class="cls-2" d="M468,263.59l2.12.85-2.12-.85a4.79,4.79,0,0,1,2.47,1,11.24,11.24,0,0,1,1.29,1.69.87.87,0,0,1,.17.59c-10.87-3.13-20.42-8.74-29.32-15.6-5.79-4.46-10.61-9.9-15.49-15.29l0,0a1,1,0,0,0-.18-.47,73.79,73.79,0,0,1-12.7-26.28c-.22-.81-.69-1.65-.19-2.53,1.87,3.19,2.39,6.88,4,10.22a91.26,91.26,0,0,0,30.73,36.35,93.43,93.43,0,0,0,13.45,7.72c1.14.55,2.22,1.43,3.65,1.12h0c.18.46.51.5.93.34a1.16,1.16,0,0,0,.75,1.11A.71.71,0,0,0,468,263.59Z"/><path class="cls-16" d="M535.52,263c2.2-.67,4.26-1.79,6.58-2.08.74-.09,1.48-.57,2.21,0a90.35,90.35,0,0,1-26.93,9.31,97.1,97.1,0,0,1-31.64.32,3.4,3.4,0,0,0-1,.17h0c-.08-.37-.35-.43-.67-.41l0,0a1.11,1.11,0,0,0-1.13-.21c-1.74-1.05-4.19-1-5.16-3.25a99.62,99.62,0,0,0,25.34,2.77,88.74,88.74,0,0,0,30.58-6.14A15.05,15.05,0,0,1,535.52,263Z"/><path class="cls-8" d="M559.75,255.11a26.86,26.86,0,0,1,5.42-2.42c.07,1.36-1,2-1.82,2.7A96.33,96.33,0,0,1,537.93,271c-8.12,3.24-16.49,5.76-25.34,6.24a14.86,14.86,0,0,0-2.56.61,18.56,18.56,0,0,1-7-1.11c.34-.81,1.05-.8,1.77-.79a80.22,80.22,0,0,0,18.43-2.33,89,89,0,0,0,34-15.8C558.15,257.06,559.84,256.88,559.75,255.11Z"/><path class="cls-17" d="M598.16,217.71c-2,.95-2.88,3-4.28,4.47-3.5,3.78-6.77,7.78-11.16,10.62-.17-2.2,1.84-3.21,2.64-4.87l.38-.75v0c3.78-2.24,6-6,8.9-9.11,1.58-1.76,2.58-4,4.41-5.53a7.46,7.46,0,0,1-.41,4.52c-.87-.31-.59.23-.49.64Z"/><path class="cls-18" d="M595,197.81c2-1.72,1.79-4.38,2.77-6.55.9-2,.56-4.48,2.44-6.08.19,1.21.83,2.37.46,3.65-1.66,4.46-3.34,8.91-5,13.38a6.77,6.77,0,0,1-1.69,2.89A16.91,16.91,0,0,1,595,197.81Z"/><path class="cls-14" d="M595.19,166.76c-.35.38,0,1.11-.65,1.34-.31-2.12-1.6-4.07-1-6.33A11.51,11.51,0,0,1,595.19,166.76Z"/><path class="cls-13" d="M483,270.11a1.11,1.11,0,0,1,1.13.21Z"/><path class="cls-14" d="M598.15,217.72c-.1-.41-.38-.95.49-.64C598.47,217.29,598.31,217.51,598.15,217.72Z"/><path class="cls-13" d="M603.16,204.54a1,1,0,0,1-.26,1.17A1.17,1.17,0,0,1,603.16,204.54Z"/><path class="cls-13" d="M484.08,270.3c.32,0,.59,0,.67.41A.52.52,0,0,1,484.08,270.3Z"/><path class="cls-13" d="M593.78,229.08l.4-.66C594.27,228.77,594.17,229,593.78,229.08Z"/><path class="cls-13" d="M594.17,228.44l.4-.66A.49.49,0,0,1,594.17,228.44Z"/><path class="cls-13" d="M594.55,227.81l.53-.71Z"/><path class="cls-13" d="M427,235.57a1,1,0,0,1,.18.47C426.75,236,426.62,235.88,427,235.57Z"/><path class="cls-6" d="M445.68,158.89a7.9,7.9,0,0,1-.29-3.58c.13-.27.25-.53.38-.79v0q4.17-6.21,8.32-12.43c2.3-.39,2.56-2.68,3.8-4.05.35-.12.65-.28.61-.72l0,0c1.07-.11,1.58-1,2.29-1.63,3.77-3.24,7.51-6.51,11.27-9.77a19.28,19.28,0,0,0,6.76-3.71c.89-.35,1.81-.65,2.66-1.07,9.59-4.72,19.61-7.84,30.34-8.43,2.23-.39,4.54.13,6.75-.53,5.83-.17,11.55,1,17.32,1.44.16.16.33.36.49,0a3.63,3.63,0,0,0-.37-.19c-6.55-3.36-13.34-5.81-20.87-5.39-2.14-1.48-4.67-1-7-1.42a44.8,44.8,0,0,0-5.45.37c-3.7.68-7.66.14-11,2.31a18.14,18.14,0,0,1-2.57.34c-2.65.65-5.54.85-7.53,3.13a26.28,26.28,0,0,0-9.95,5.18c-.49.13-1,.21-1.15.83h0c-.93.05-1.52.74-2.26,1.18-2.36,1.38-3.68,3.79-5.65,5.56-.38.09-.69.26-.67.72l0,0c-3.27,1.65-4.86,4.89-7.09,7.53-3.25,3.84-5.06,8.56-7.65,12.82-.38-2.9.95-5.38,1.93-8,.16-.26.32-.52.49-.77l.3-.52a71.9,71.9,0,0,1,16.64-18.44c.32-.24,1.12-.47.37-1.13l10.41-5.49,5.77-3a35.78,35.78,0,0,0,3.56-.93c10.19-3.68,20.66-4.19,31.3-2.7,2.74.39,5.5.71,8.25,1.06,2.11,1.82,4.83,2.2,7.33,3.09a1,1,0,0,0,1.11.29l0,0,.67.41h0a142.71,142.71,0,0,0,23.34,11.31h0l.65.4h0l.67.41,0,0,.68.41,0,0,.69.49c2,1.2,3.67,3.14,6.26,3.25,1,.4,1.52,1.41,2.28,2.11,1.7,1.56,3.14,3.46,5.44,4.27a9.36,9.36,0,0,0,4,4.06l8.12,9.34h0c.11.45.26.86.81.92,1.09.41.47,2,1.68,2.36.09.29.17.59.25.89-.54.45-.57,1.4-1.46,1.53-2.11-2.62-3.63-5.74-6.38-7.85a11.69,11.69,0,0,0-3.46-4.42,14.52,14.52,0,0,0-6.18-5.11L570.92,133c-1.25-1-2.25-2.43-3.91-2.92a43.26,43.26,0,0,0-13.16-7.86c-.14,0-.37-.2-.41-.16-.27.28,0,.38.21.49.8.92,1.58,1.87,2.42,2.76,14.91,15.79,21,34.48,18.6,56-.3,2.7-1.45,5.26-1.24,8l0,0c-.5.3-.45.72-.28,1.18l0,0-.42.66,0,0-.34.6-.88,3a1,1,0,0,0-.35,1.2h0c-1.86,2.55-2.54,5.64-3.8,8.47a1.55,1.55,0,0,0-.86,1.86h0c-3.26,4.44-6.21,9.12-10.15,13s-7.61,7.57-12.54,9.87a20,20,0,0,1-7.64,2.3c2-1.27,4.45-1.91,6.09-3.8.38-.72,1.2-.57,1.76-.91,2.27-1.35,4.93-2.26,6-5.06a41.91,41.91,0,0,0,4.5-3.62c7.33-7.67,12.84-16.44,15.59-26.79,2.23-3.64,2.1-7.73,2.2-11.77.86-.62.66-1.59.69-2.43.9-19.56-5.25-36.42-18.76-50.78-7.54-8-16.73-11.06-27.29-11.26-2-.61-4.05-1.19-6.18-.54h0c-.29-.41-.44-.24-.54.14a41.69,41.69,0,0,0-4.17-.19,81.93,81.93,0,0,0-23.64,4.41c-9.15,3.26-17.79,7.3-24.85,14.18a10.13,10.13,0,0,0-5,3.9l-.93.79,0,0-.41.67v0a20.5,20.5,0,0,0-6.57,7.54c-2.27.68-2.36,2.93-3.28,4.58-.61.23-.9.6-.53,1.25l0,0c-1.14-.06-1.33,1-1.77,1.63C448.05,155.11,446.88,157,445.68,158.89Z"/><path class="cls-2" d="M575.35,125.83c-2.5-4.93-6.39-8.76-10.26-12.54a90,90,0,0,0-47.33-24.73c-.43-.08-.85-.22-1.27-.33,3.43-.87,6.81-.24,10.18.36,1,.19,2,.55,3,.84,23.58,7.94,41.47,22.74,53.49,44.54a65.73,65.73,0,0,1,6.5,15.75c-1.21-.33-.59-1.95-1.68-2.36-.19-.38-.27-.85-.81-.92h0c-.8-3.29-2.58-6.12-4.27-9-2.14-3.62-4-7.44-6.65-10.71-.28-.36-.41-.88-1-.86Z"/><path class="cls-19" d="M457.67,120.35a87.37,87.37,0,0,1,15.94-7.47,9.3,9.3,0,0,0,2.48-1.46c12.32-9.28,26.1-14.26,41.59-14.26a3.76,3.76,0,0,0,2.3-.39l0,0c.23.64.78.37,1.21.44,3.27.6,6.6,1,9.42,3-3-.27-6.07-.64-9.11-.8-13.85-.72-26.73,2.36-38.45,9.9l-5.77,3-10.41,5.49a71.16,71.16,0,0,0-11.34,6.65C455.44,122.67,456.81,121.65,457.67,120.35Z"/><path class="cls-10" d="M530.58,100.18c-2.82-2-6.15-2.41-9.42-3-.26-.55-.71-.57-1.21-.44l0,0c-7.84-2.19-15.81-2.11-23.84-1.5-5.1.39-9.93,2-14.89,3,3.63-3.43,8.44-3.83,12.93-4.57a60.14,60.14,0,0,1,18.8-.31,74.88,74.88,0,0,1,17.26,4.44c1.84.74,3.76,1.3,5.64,2a1,1,0,0,0,1.26.43l0,0a.53.53,0,0,0,.68.41l0,0a.52.52,0,0,0,.67.41l0,0c3.08,2.52,6.79,4,10.15,6l.71.63,0,0c.11.79.78,1.09,1.3,1.54,3.91,3.32,7.88,6.57,10.82,10.85-2.63-.45-4.3-2.47-6.33-3.9-.1-.45-.26-.85-.78-.95v0a3.17,3.17,0,0,0-.52-.9c-6.79-5.72-13.78-11.13-22.51-13.67.34-.95-.33-.45-.65-.46Z"/><path class="cls-20" d="M456.4,198.7c-2.38-6.34-3.61-13-4.72-19.61,1.12-.44.53-1.28.47-2a103.2,103.2,0,0,1,.11-13.16,1.21,1.21,0,0,0,.28-1.28v0a110.11,110.11,0,0,1,5-16.22c1.18-2.79,3.3-5.13,3.89-8.18v0l.41-.67,0,0a1.1,1.1,0,0,0,.93-.79,10.13,10.13,0,0,1,5-3.9A12.62,12.62,0,0,1,466.6,135a52.34,52.34,0,0,0-6.94,11.78c-5.18,11.7-7.08,23.84-4.91,36.52-.57.86-.1,1.7.05,2.53a38.57,38.57,0,0,0,4.72,13.22c-.5,2.66,1.61,4.35,2.49,6.49.61,1.51,2,2.61,2.39,4.27a35.69,35.69,0,0,1-7.16-9.18c-.08-.33-.17-.67-.26-1Z"/><path class="cls-21" d="M576.86,208.11c-1.12,4-4.12,6.76-6.62,9.82a70,70,0,0,1-14,12.45,16.09,16.09,0,0,0-6.19,4.19c-.58-.6-1.08-.17-1.64.09a72.28,72.28,0,0,1-21.82,6.12c-3.91.47-7.87,0-11.72.94-.85-1.45-2.6-.28-3.62-1.24,2.69-1,5.61-1.07,8.35-1.85.83,1.59,2,.34,3,.28,2.57-.15,5.17,0,7.7-.72,9.2-1.33,17.53-4.92,25.34-9.83.4-.16.83-.29.93-.79l0,0c2.41-.63,3.53-2.7,5-4.41.29.35.47.33.49-.16l0,0c2.4-1,4-3,5.37-5h0l.4-.66v0a1.18,1.18,0,0,0,1-.79c2-2.15,3.92-4.34,5.94-6.44C575.28,209.41,575.75,208.39,576.86,208.11Z"/><path class="cls-5" d="M567.49,204.34c1.26-2.83,1.94-5.92,3.8-8.47.5,1.3-.52,2.54-.17,3.84-.16.87-.89,1.69-.1,2.94a56.77,56.77,0,0,0,4.79-7.72,66.76,66.76,0,0,0,7.25-36.1c.66.29.77.92.84,1.53.57,5,1.43,10,.45,15.07l.14,1,0,0c-.71.77-.63,1.8-.82,2.71a64.84,64.84,0,0,1-12.54,26.77,33.52,33.52,0,0,0-5.58,9.75c-1.05,1.54-2,3.18-4,3.72.27-1.47,1.19-2.65,1.8-4,.48-1-.31-.62-.71-.65,1.21-2.21,3.17-4,3.82-6.55a3,3,0,0,0,.15-2h0C567.8,206,567.2,205,567.49,204.34Z"/><path class="cls-19" d="M583.7,152.22c1.69,3.88,1.88,8.11,2.56,12.19,1.17,7.13.74,14.3-.25,21.43l-.18,1c-.18.64-.37,1.28-.56,1.91-.81,2.13-1.54,4.29-2.46,6.37-.4.91-.78,2-2,2.28,1-3.8,2.11-7.57,2.9-11.41.65-3.14,1.51-6.31.81-9.58l0,0c.54-.41.51-.74-.14-1,1-5.06.12-10.06-.45-15.07-.07-.61-.18-1.24-.84-1.53a55.7,55.7,0,0,0-6.18-16.66c-1.36-2.53-3-4.95-4.44-7.41a14.52,14.52,0,0,1,6.18,5.11C580.14,144.06,581.48,148.32,583.7,152.22Z"/><path class="cls-17" d="M479.34,225.31c3.13,3.17,7.14,5,10.92,7.13,3.44,2,7.33,2.82,10.89,4.5a14.06,14.06,0,0,1-9-1.13l-.65-.39h0a1.8,1.8,0,0,0-2.32-.54h0c-.37-1.54-1.85-1.81-2.94-2.39a67.48,67.48,0,0,1-17.6-14.1,3.81,3.81,0,0,1-1.3-2.24c3,2.36,6,4.7,8.93,7.08a6.91,6.91,0,0,0,2.3,1.67l.73.38Z"/><path class="cls-2" d="M503.56,87a93,93,0,0,0-24.88,2.57c.56-2,2.49-1.82,3.87-2.44a20.59,20.59,0,0,1,3.53-.94c9.16-1.83,18.36-1.55,27.58-.54-2.79,1.41-5.84,1-8.8,1.31C504.43,87,504,87,503.56,87Z"/><path class="cls-13" d="M555.56,228.36c-7.81,4.91-16.14,8.5-25.34,9.83,3.35-1.59,6.85-2.93,10-4.82,5.12-3,10.92-4.61,16-7.79a3.94,3.94,0,0,1,1.28-.25c-.33.76-1.28,1.24-1,2.26l0,0C556,227.56,555.72,227.92,555.56,228.36Z"/><path class="cls-22" d="M579.08,137.11a9.36,9.36,0,0,1-4-4.06c-4.3-8-10.28-14.5-17.2-20.25l.32-.44C567.08,119,575,126.42,579.08,137.11Z"/><path class="cls-14" d="M562.68,214.72c.4,0,1.19-.37.71.65-.61,1.32-1.53,2.5-1.8,4v0c-.1.2-.2.4-.31.6-2.51,1.32-4.48,3.54-7.49,4.14Z"/><path class="cls-22" d="M548.52,107c-3.36-2.05-7.07-3.52-10.15-6,1.8-.25,3.16.88,4.57,1.64,3.44,1.86,7.22,3.18,10,6.07l-.32.46c-1.23-.31-2-1.64-3.45-1.53l0,0Z"/><path class="cls-5" d="M556.46,227.59c-.26-1,.69-1.5,1-2.26a9.7,9.7,0,0,1,4.7-3.42c-.09.38-.19.75-.28,1.13l0,0-.49.16C560,224.89,558.87,227,556.46,227.59Z"/><path class="cls-22" d="M589,153.62c-.17-.49-.35-1-.53-1.48.89-.13.92-1.08,1.46-1.53.27.5.53,1,.79,1.52.14,1.1.65,2.18.09,3.35C589.74,155.33,589.85,154,589,153.62Z"/><path class="cls-14" d="M561.9,223c.09-.38.19-.75.28-1.13,1.56-1.49,2.86-3.3,5.09-3.91C565.85,220.06,564.3,222,561.9,223Z"/><path class="cls-5" d="M554.22,109.49a9.64,9.64,0,0,1,4,2.87c-.1.15-.21.29-.32.44a18.76,18.76,0,0,1-3.94-2.85Z"/><path class="cls-13" d="M585.27,188.73c.19-.63.38-1.27.56-1.91C586.75,187.79,586.14,188.3,585.27,188.73Z"/><path class="cls-5" d="M537.14,100.24a1,1,0,0,1-1.26-.43Z"/><path class="cls-14" d="M568.64,216.58a1.18,1.18,0,0,1-1,.79C567.76,216.83,568.18,216.68,568.64,216.58Z"/><path class="cls-23" d="M447.12,146.58a1.12,1.12,0,0,1-.28,1.19C446.74,147.33,446.63,146.88,447.12,146.58Z"/><path class="cls-21" d="M580.53,198.54a1,1,0,0,1,.28-1.17A1,1,0,0,1,580.53,198.54Z"/><path class="cls-21" d="M466.8,215.8l-.83-.93C466.5,215,466.69,215.34,466.8,215.8Z"/><path class="cls-13" d="M457,199.66c.09.33.18.67.26,1C456.65,200.46,456.52,200.14,457,199.66Z"/><path class="cls-14" d="M594.56,168.07l.18,1C594.1,168.86,594,168.52,594.56,168.07Z"/><path class="cls-14" d="M479.37,225.3l-.73-.38Z"/><path class="cls-21" d="M578.92,205.43l-.51.15C578.49,205.21,578.64,205.1,578.92,205.43Z"/><path class="cls-23" d="M445.7,158.87l-.41.73Z"/><path class="cls-21" d="M578.43,205.55l-.41.66C578.16,206,578.3,205.77,578.43,205.55Z"/><path class="cls-14" d="M445.77,154.52c-.13.26-.25.52-.38.79C445.52,155,445.64,154.78,445.77,154.52Z"/><path class="cls-21" d="M578,206.18l-.41.67Z"/><path class="cls-21" d="M467.44,216.18l-.67-.41Z"/><path class="cls-21" d="M580,198.65l.54-.14C580.46,199,580.27,199,580,198.65Z"/><path class="cls-5" d="M553,108.71l.63.39-.31.46-.64-.39Z"/><path class="cls-21" d="M577.25,207.47l-.39.64Z"/><path class="cls-5" d="M538.4,101a.52.52,0,0,1-.67-.41C538.07,100.56,538.32,100.65,538.4,101Z"/><path class="cls-5" d="M553.61,109.1l.61.39-.29.46-.63-.39Z"/><path class="cls-5" d="M537.77,100.63a.53.53,0,0,1-.68-.41Z"/><path class="cls-14" d="M449.53,137.89c-.17.25-.33.51-.49.77C449.2,138.4,449.36,138.14,449.53,137.89Z"/><path class="cls-14" d="M567.66,217.35l-.4.66Z"/><path class="cls-5" d="M561.29,219.9c.11-.2.21-.4.31-.6C561.5,219.5,561.4,219.7,561.29,219.9Z"/><path class="cls-21" d="M577.65,206.83c-.14.21-.27.43-.4.65C577.38,207.26,577.51,207,577.65,206.83Z"/><path class="cls-23" d="M446.86,147.72l-.41.76Z"/><path class="cls-11" d="M440,107.28,433,113.85c-.44-3,2.18-4.45,3.59-6.33a87,87,0,0,1,23.85-21.88,82.22,82.22,0,0,1,20.07-9.44c1.5-.44,2.94-1.1,4.44-1.56.78-.23,1.72-.73,2.26.46l-9.27,4.45a1.08,1.08,0,0,0-1.22-.22c-3.17,1.45-6.41,2.76-9.47,4.42a85.89,85.89,0,0,0-23.39,18C442.34,103.34,439.84,104.47,440,107.28Z"/><path class="cls-10" d="M452.71,222.92a94,94,0,0,1-14.11-18.61c-.43-.77-.7-1.61-1.55-2l-.15-4.92A103.59,103.59,0,0,0,446,212.45c.53.69.71,1.94,2,1.77,3.59,4.16,7.18,8.27,11.66,11.59A73.94,73.94,0,0,0,494,240.08a68.38,68.38,0,0,0,10.71.63c.79,0,1.6.21,2-.73l4.48.5c1,1,2.77-.21,3.62,1.24-1.72.25-3.44.59-5.17.71a75.6,75.6,0,0,1-37.7-7c-1.31-.61-2.53-1.6-4.12-1.46h0l-.65-.4h0l-.77-.38-.49-.34c-.19-.19.09-1-.65-.47-1.13-.22-1.6-1.3-2.46-1.87-3-2-5.4-4.81-8.75-6.32h0a1,1,0,0,0-.78-.93l0,0Z"/><path class="cls-12" d="M439.37,212.51a133.77,133.77,0,0,0,16.13,22.28c-2.36-.42-3.77-2.37-5.66-3.54l-.69-.44.05,0c-.11-.44-.2-.9-.79-.93v0c-1.52-3.25-4.17-5.71-6.07-8.7-.84-1.32-1-3.2-2.84-3.83C438.48,215.8,438.09,214.18,439.37,212.51Z"/><path class="cls-22" d="M434.59,189.75c-1.92-2.64-2-5.87-2.58-8.87a72.65,72.65,0,0,1-1.17-14.21c0-.73-.17-1.6.51-2.22.71,6.52,1.13,13.08,2.91,19.43.25.89.11,2,1.16,2.52A6.85,6.85,0,0,1,434.59,189.75Z"/><path class="cls-22" d="M448,214.22c-1.33.17-1.51-1.08-2-1.77a103.59,103.59,0,0,1-9.08-15.09,4.88,4.88,0,0,1,.44-2.84c2.68,5.17,4.93,10.56,8.06,15.49C446.29,211.4,447.15,212.81,448,214.22Z"/><path class="cls-11" d="M439.51,217.41c1.8.63,2,2.51,2.84,3.83,1.9,3,4.55,5.45,6.07,8.7-2.68-.84-4.07-3.46-6.48-4.67C441.22,222.62,439.92,220.15,439.51,217.41Z"/><path class="cls-12" d="M429.81,181.14c1.6,1.92,1.39,4.4,2.06,6.61a20.13,20.13,0,0,0,2.64,6.37c.13,2.35.79,4.65.59,7a13.52,13.52,0,0,1-2.35-5.4A89.49,89.49,0,0,1,429.81,181.14Z"/><path class="cls-13" d="M489.24,234.89a1.8,1.8,0,0,1,2.32.54A1.81,1.81,0,0,1,489.24,234.89Z"/><path class="cls-13" d="M439.81,175.45l.08-.71c.07,0,.21.09.21.11-.06.22-.14.43-.21.64Z"/><path class="cls-5" d="M440.42,225.94l-.59-.46Z"/><path class="cls-13" d="M452.26,243.58c0,.2.08.4.13.61C451.89,244.08,452,243.86,452.26,243.58Z"/><path class="cls-13" d="M452.35,244.16c.39-.14.59,0,.67.4C452.65,244.68,452.48,244.46,452.35,244.16Z"/><path class="cls-17" d="M491.54,235.42l.65.39C491.88,235.83,491.62,235.77,491.54,235.42Z"/><path class="cls-8" d="M439.94,118.47c1.18-1.38,1.82-3.34,3.94-3.71l0,0c-.16,1.29-1.67,2.09-1.32,3.56h0l-.38.63h0l-.39.63h0l-.41.64,0,0a1.06,1.06,0,0,0-.29,1.18l0,0a1,1,0,0,0-.8,1.28q-2.13,4-4.28,8c-.37.69-.75,1.4-1.64,1.55.94-4.67,3.41-8.74,5.1-13.12h0Z"/><path class="cls-14" d="M452.26,106.31c-1-.23-1.55,1.32-2.64.58a60.14,60.14,0,0,1,8.1-9.35c3.23-1.08,6-3.14,9.36-4Z"/><path class="cls-24" d="M467.08,93.51c-3.31.89-6.13,2.95-9.36,4,1.17-2,3.15-3.13,4.88-4.53,3.82-1.43,7.53-3.16,11.56-4C472.3,91.3,469.38,91.91,467.08,93.51Z"/><path class="cls-9" d="M440.34,122.67a1,1,0,0,1,.8-1.28C440.87,121.82,440.61,122.25,440.34,122.67Z"/><path class="cls-13" d="M438.05,131.32c.09.46.13.9-.32,1.21C437.84,132.13,437.94,131.72,438.05,131.32Z"/><path class="cls-9" d="M441.12,121.42a1.06,1.06,0,0,1,.29-1.18A1.07,1.07,0,0,1,441.12,121.42Z"/><path class="cls-13" d="M439.18,129.23l-.36.87Z"/><path class="cls-13" d="M440,128.16l-.64.71Z"/><path class="cls-13" d="M440.4,127.53l-.4.65Z"/><path class="cls-13" d="M440.79,126.89l-.4.65A.54.54,0,0,1,440.79,126.89Z"/><path class="cls-13" d="M438.84,130.06c-.17.24-.35.47-.52.7Z"/><path class="cls-9" d="M442.19,119l.38-.63Z"/><path class="cls-13" d="M441.18,126.26l-.4.65A.52.52,0,0,1,441.18,126.26Z"/><path class="cls-9" d="M441.79,119.62l.39-.63Z"/><path class="cls-9" d="M441.39,120.26l.41-.64Z"/><path class="cls-14" d="M449.78,103.05l.36-.71C450.84,103,450.05,102.89,449.78,103.05Z"/><path class="cls-21" d="M445.09,110.66c-.07.42-.25.45-.52.14Z"/><path class="cls-13" d="M439.94,118.47l-.43.63C439.54,118.81,439,118.12,439.94,118.47Z"/><path class="cls-21" d="M443.88,114.76l.18-.26-.15.28Z"/><path class="cls-8" d="M595,197.81a16.91,16.91,0,0,0-1,7.29c-2.33,5.67-3.57,11.73-6.23,17.29-.75,1.58-1.39,3.21-2.08,4.81v0c-.12.25-.25.5-.38.75-.8,1.66-2.81,2.67-2.64,4.87v0c-.21.17-1,0-.41.64a74.64,74.64,0,0,0-6.49,9.19v0l-.48.7a13.55,13.55,0,0,1-4.62,3.18c-.07-1.82,1.7-2.49,2.4-3.82s2.44-2,2.27-3.83c1.39-1.31,3-2.49,3.31-4.55l0,0c.2-.17,1,0,.42-.64a11.54,11.54,0,0,0,3-3.86,101.21,101.21,0,0,0,8.94-22.52c.86-3.26,2.19-6.5,1.65-10v0c.53-.52,1.36-1,.14-1.68.35-3.15,1.28-6.24.92-9.46.18-1.56.1-3.17,1-4.59,1.2.26,1,1.17,1,2C596.11,188.35,595.19,193.06,595,197.81Z"/><path class="cls-16" d="M593.75,186.12c.36,3.22-.57,6.31-.92,9.46a1.91,1.91,0,0,0-.14,1.68v0c-1.87,5.84-3.3,11.82-5.71,17.49a108.44,108.44,0,0,1-13.33,22.36c-1.82,1.43-3.27,3.48-5.9,3.59,3.46-4,6.93-7.94,9.55-12.56,7-10,11.08-21.23,13.51-33.11,0-.15-.26-.37-.4-.56A27.34,27.34,0,0,1,593.75,186.12Z"/><path class="cls-17" d="M567.76,240.68c2.63-.11,4.08-2.16,5.9-3.59,2-.34,3.18-2.22,5.05-2.84-.36,2.06-1.92,3.24-3.31,4.55l-7.91,4.67c-.46.12-.93.24-1.06.8h0a13.07,13.07,0,0,0-5.36,2.85c-.5-.48-.8-.31-1,.29l0,0c-6.86,2.36-13.72,4.73-20.89,6A91.81,91.81,0,0,1,526,254.82a5.71,5.71,0,0,1-1.72-.51c1-1.2,2.68-1.24,3.94-2,4,.52,8-.33,11.87-1.22,1.8-.41,3.58-.87,5.37-1.31A49.6,49.6,0,0,0,556,246.7C560,245,564.33,243.66,567.76,240.68Z"/><path class="cls-22" d="M467.84,234a39.77,39.77,0,0,0,9.49,6.75,109.4,109.4,0,0,0,14.21,6.56,1.42,1.42,0,0,1,.93.84,19.89,19.89,0,0,1-6.77-.86,1,1,0,0,0-1.23-.41l0,0-.66-.41,0,0c-2.21-1.19-4.45-2.35-6.64-3.59a93.59,93.59,0,0,1-22.77-18,2.53,2.53,0,0,1-.34-.7c3.35,1.51,5.75,4.33,8.75,6.32.86.57,1.33,1.65,2.46,1.87l.65.47.49.34.77.38h0l.65.4Z"/><path class="cls-12" d="M467,243.94c2.87,3.06,6.7,4.66,10.24,6.71,2.84,1.66,6,2.65,8.72,4.6-2.56.65-4.92-.26-7.31-.93.36-.95-.27-.52-.64-.46l0,0c-.58-1.37-2.05-1.51-3.12-2.16a142.16,142.16,0,0,1-12.45-8.27c-.37-.72-1.38-.93-1.45-1.87,2.08-.38,3.57,1,5.28,1.73.13.35.31.63.73.65Z"/><path class="cls-11" d="M461,241.58c.07.94,1.08,1.15,1.45,1.87-1.6.52-2.67-.59-3.77-1.34-2.57-1.77-5-3.69-7.56-5.52a3.13,3.13,0,0,1-1-2.29A96,96,0,0,1,461,241.58Z"/><path class="cls-11" d="M534.89,246.33l.45-.49c.21.56-.37.26-.5.45Z"/><path class="cls-14" d="M478,253.86c.37-.06,1-.49.64.46Z"/><path class="cls-13" d="M484.47,246.88a1,1,0,0,1,1.23.41C485.27,247.22,484.78,247.33,484.47,246.88Z"/><path class="cls-11" d="M448.41,229.92c.59,0,.68.49.79.93C448.75,230.7,448.39,230.47,448.41,229.92Z"/><path class="cls-11" d="M449.15,230.81l.69.44Z"/><path class="cls-14" d="M553,234.5l.2.14c-.05.07-.1.18-.16.19s-.14-.08-.21-.12Z"/><path class="cls-13" d="M483.84,246.49l.66.41C484.17,246.94,483.85,247,483.84,246.49Z"/><path class="cls-11" d="M467,244c-.42,0-.6-.3-.73-.65Z"/><path class="cls-14" d="M567.49,243.47l7.91-4.67c.17,1.82-1.58,2.51-2.27,3.83s-2.47,2-2.4,3.82c-4.76,3.44-9.71,6.52-15.47,8.06,1.66-1.37,3.41-2.65,5-4.13,2.11-2,4.87-3.35,6.22-6.12h0A1.19,1.19,0,0,0,567.49,243.47Z"/><path class="cls-16" d="M566.45,244.26c-1.35,2.77-4.11,4.12-6.22,6.12-1.56,1.48-3.31,2.76-5,4.13l0,0-.89.32c-2.12,1.71-4.68,2.22-7.25,2.7,3.1-2.2,6.24-4.34,9.29-6.61,1.35-1,3-1.79,3.69-3.5l0,0,1-.29A13.07,13.07,0,0,1,566.45,244.26Z"/><path class="cls-14" d="M554.4,254.79l.89-.32C555.17,255.06,554.89,255.23,554.4,254.79Z"/><path class="cls-14" d="M575.35,243.27l.48-.7Z"/><path class="cls-21" d="M582.32,233.42c-.59-.68.2-.47.41-.64Z"/><path class="cls-13" d="M585.36,227.93c.13-.25.26-.5.38-.75C585.62,227.43,585.49,227.68,585.36,227.93Z"/><path class="cls-19" d="M454.75,183.33C464.1,212.55,489.84,231,520,230.11a66.07,66.07,0,0,0,30.13-8.49c-1,2.8-3.7,3.71-6,5.06-.56.34-1.38.19-1.76.91-11,4.12-22.26,5.75-33.88,4q-32-4.83-49-32.5a38.57,38.57,0,0,1-4.72-13.22C454.65,185,454.18,184.19,454.75,183.33Z"/><path class="cls-19" d="M527.07,115c17.1,7.64,30,19.68,38.15,36.63a73,73,0,0,1,7.21,27.84c-.1,4,0,8.13-2.2,11.77a75.42,75.42,0,0,0-3.08-28.91,71.6,71.6,0,0,0-29.29-39.11,70.69,70.69,0,0,0-15.27-7.73c-.6-.22-1.46-.15-1.7-1C523,113.78,525.05,114.36,527.07,115Z"/><path class="cls-10" d="M573.43,189.35c2-3.23,2.1-7,2.69-10.56a71.21,71.21,0,0,0-1.23-28.85,76.22,76.22,0,0,0-7-17.71,17.81,17.81,0,0,1-.86-2.17c1.66.49,2.66,1.88,3.91,2.92-.64,1.58.66,2.62,1.18,3.79a75.1,75.1,0,0,1,.38,61.16c-.32.73-.46,1.53-1.36,1.78-.35-1.3.67-2.54.17-3.84h0c.47-.3.35-.77.35-1.2.3-1,.59-2,.88-3l.34-.6,0,0,.42-.66,0,0a1,1,0,0,0,.28-1.17Z"/><path class="cls-17" d="M526.13,106.71c8.3.35,15.91,3.09,23.32,6.59,1.55.74,2.94,1.89,4.78,1.9v0a1,1,0,0,0,.78.95c2,1.43,3.7,3.45,6.33,3.9l6,6.64c-2.59-.11-4.23-2-6.26-3.25l-.69-.49,0,0-.68-.41,0,0-.67-.41h0l-.65-.4h0c0-.71-.6-1-1.08-1.39a49.92,49.92,0,0,0-14.5-7.82c-2.5-.93-4.92-2.33-7.76-2.1h0l-.67-.41,0,0a1.11,1.11,0,0,0-1.11-.29C531,108.91,528.24,108.53,526.13,106.71Z"/><path class="cls-17" d="M472,126a51.17,51.17,0,0,1,13.79-10.82c2.5-1.42,5.12-2.63,7.68-3.94a18.06,18.06,0,0,0,2.75-.78c.91-.41,2.47.2,2.62-1.52a22,22,0,0,0,9.21-2.24c2.36.4,4.89-.06,7,1.42-2.55.46-5.18.49-7.65,1.4-2.21.11-4.49-.06-6.37,1.48-8.37,1.91-15.6,6.07-22.3,11.29A19.28,19.28,0,0,1,472,126Z"/><path class="cls-5" d="M452.26,163.93a103.2,103.2,0,0,0-.11,13.16c.06.72.65,1.56-.47,2-1.65-8.25-2.25-16.53-.78-24.88a22.06,22.06,0,0,0,.16-2.58l0,0c.54-.26.42-.8.53-1.25.92-1.65,1-3.9,3.28-4.58-.31,1.18-.68,2.34-.91,3.53-.84,4.4-2.09,8.76-1.41,13.33v0C452,163,452.23,163.48,452.26,163.93Z"/><path class="cls-5" d="M470.41,118.82c-1.15,2.4-3.37,4-4.81,6.13-2.63,4-5.72,7.73-7.13,12.42l0,0-.61.72c-1.24,1.37-1.5,3.66-3.8,4.05a61.47,61.47,0,0,1,6.42-13.38c.49-.8,1.25-1.47,1.35-2.48l0,0,.67-.72c2-1.77,3.29-4.18,5.65-5.56C468.89,119.56,469.48,118.87,470.41,118.82Z"/><path class="cls-5" d="M511.79,112.76c-1.73-1.3-3.86-.83-5.79-1.26a42.12,42.12,0,0,0-4.91-.53c1.88-1.54,4.16-1.37,6.37-1.48,3.67,1,7.59,1,11.08,2.74C516.33,112.89,514,112.37,511.79,112.76Z"/><path class="cls-5" d="M498.87,108.91c-.15,1.72-1.71,1.11-2.62,1.52a18.06,18.06,0,0,1-2.75.78c-4.1-.17-8,.87-12,1.61,2-2.28,4.88-2.48,7.53-3.13a18.14,18.14,0,0,0,2.57-.34Z"/><path class="cls-11" d="M498.87,108.91l-7.28.44c3.38-2.17,7.34-1.63,11-2.31a44.8,44.8,0,0,1,5.45-.37A22,22,0,0,1,498.87,108.91Z"/><path class="cls-19" d="M583.7,152.22c-2.22-3.9-3.56-8.16-5.08-12.35a11.69,11.69,0,0,1,3.46,4.42C582.82,146.89,584,149.4,583.7,152.22Z"/><path class="cls-9" d="M567.49,204.34c-.29.62.31,1.64-.86,1.86A1.55,1.55,0,0,1,567.49,204.34Z"/><path class="cls-5" d="M471.54,118a1.32,1.32,0,0,1-1.15.83C470.52,118.21,471.05,118.13,471.54,118Z"/><path class="cls-14" d="M462.73,136.88a1.1,1.1,0,0,1-.93.79Z"/><path class="cls-13" d="M451.57,150.41c-.11.45,0,1-.53,1.25C450.67,151,451,150.64,451.57,150.41Z"/><path class="cls-9" d="M587.18,146.44c.54.07.62.54.81.92C587.44,147.3,587.29,146.89,587.18,146.44Z"/><path class="cls-5" d="M571.59,194.68c0,.43.12.9-.35,1.2A1,1,0,0,1,571.59,194.68Z"/><path class="cls-14" d="M573.46,189.33a1,1,0,0,1-.28,1.17C573,190.05,573,189.63,573.46,189.33Z"/><path class="cls-14" d="M533.46,109.8a1.11,1.11,0,0,1,1.11.29A1,1,0,0,1,533.46,109.8Z"/><path class="cls-14" d="M462.5,125.56l-.67.72C461.81,125.82,462.12,125.65,462.5,125.56Z"/><path class="cls-14" d="M534.53,110.07l.67.41Z"/><path class="cls-5" d="M520.92,114.44l-.54.14C520.48,114.2,520.63,114,520.92,114.44Z"/><path class="cls-14" d="M573.2,190.48l-.42.66Z"/><path class="cls-14" d="M572.81,191.11l-.34.6Z"/><path class="cls-14" d="M536,113.48a3.63,3.63,0,0,1,.37.19c-.16.36-.33.16-.49,0Z"/><path class="cls-14" d="M461.82,137.64l-.41.67Z"/><path class="cls-14" d="M457.88,138.07l.61-.72C458.53,137.79,458.23,138,457.88,138.07Z"/><path class="cls-14" d="M560.4,122.93l.69.49Z"/><path class="cls-14" d="M559.76,122.55l.68.41Z"/><path class="cls-14" d="M559.13,122.16l.67.41Z"/><path class="cls-14" d="M558.5,121.77l.65.4Z"/><path class="cls-14" d="M553.65,122.53c-.2-.11-.48-.21-.21-.49,0,0,.27.11.41.16C553.78,122.31,553.71,122.42,553.65,122.53Z"/><path class="cls-13" d="M520,96.73c.5-.13.95-.11,1.21.44C520.73,97.1,520.18,97.37,520,96.73Z"/><path class="cls-5" d="M531.2,100.63l-.65-.46C530.87,100.18,531.54,99.68,531.2,100.63Z"/><path class="cls-13" d="M555,116.13a1,1,0,0,1-.78-.95C554.74,115.28,554.9,115.68,555,116.13Z"/><path class="cls-14" d="M548.52,107l.71.63Z"/><path class="cls-19" d="M452.26,163.93c0-.45-.31-1,.28-1.28A1.21,1.21,0,0,1,452.26,163.93Z"/><path class="cls-5" d="M555.56,228.36c.16-.44.39-.8.93-.79C556.39,228.07,556,228.2,555.56,228.36Z"/><path class="cls-14" d="M561.43,223.18l.49-.16C561.9,223.51,561.72,223.53,561.43,223.18Z"/><path class="cls-14" d="M584.35,175.43c.65.24.68.57.14,1Z"/><path class="cls-21" d="M453.35,223.31a1,1,0,0,1,.78.93A1.1,1.1,0,0,1,453.35,223.31Z"/><path class="cls-21" d="M452.71,222.92l.67.41Z"/><path class="cls-13" d="M466,232.89l-.65-.47C466.06,231.86,465.78,232.7,466,232.89Z"/><path class="cls-13" d="M467.23,233.61l-.77-.38Z"/><path class="cls-13" d="M467.86,234l-.65-.4Z"/><path class="cls-14" d="M578.71,234.25c-1.87.62-3,2.5-5.05,2.84A108.44,108.44,0,0,0,587,214.73c2.41-5.67,3.84-11.65,5.71-17.49.54,3.51-.79,6.75-1.65,10a101.21,101.21,0,0,1-8.94,22.52,11.54,11.54,0,0,1-3,3.86l-.42.64Z"/><path class="cls-14" d="M592.69,197.26a1.91,1.91,0,0,1,.14-1.68C594.05,196.24,593.22,196.74,592.69,197.26Z"/><path class="cls-21" d="M578.69,234.27l.42-.64C579.69,234.31,578.89,234.1,578.69,234.27Z"/><path class="cls-14" d="M561.09,247.11l-1,.29C560.29,246.8,560.59,246.63,561.09,247.11Z"/><path class="cls-16" d="M567.49,243.47a1.19,1.19,0,0,1-1.06.8C566.56,243.71,567,243.59,567.49,243.47Z"/><path class="cls-25" d="M51.46,243.62a.49.49,0,0,1,0,.32,17.43,17.43,0,0,1,3.27,7.39,9.31,9.31,0,0,0-1.34.67,12.33,12.33,0,0,0-2.37-6l-7.19,12.62-1.2-.68,7.57-13.29,0-.25Zm-.7,8.71c.13.09.16.32.07.57,3.87,2.88,7,6.57,7.05,11.39a10.68,10.68,0,0,0-1.4.58c.07-4.72-2.88-8.1-6.89-10.94Z"/><path class="cls-25" d="M56.67,248l8.43-15.2,1.29.72-8,14.5a1,1,0,0,1,0,.78Z"/><path class="cls-25" d="M73.5,221.41a72.05,72.05,0,0,0-6.31,4.6L76,230.9l-.73,1.32L60,223.72,61,222c.19.12.23.33.12.66l5.15,2.86-.23-.47a72,72,0,0,1,6.63-5Z"/></g></g></svg>